
    <svg xmlns="http://www.w3.org/2000/svg" viewBox="0 0 64 64" id="Shopping"><path d="M13.5 3.25c-2.757 0-5 2.224-5 4.969V9.75h-.938a.5.5 0 0 0-.062 0h-3c-.822 0-1.5.678-1.5 1.5v20c0 .822.678 1.5 1.5 1.5h3a.5.5 0 0 0 .063 0h24.281c.626 0 1.156-.531 1.156-1.156V18.656c0-.625-.53-1.156-1.156-1.156h-2.25v-.813a3.367 3.367 0 0 0-3.375-3.375c-.181 0-.358.036-.532.063a3.349 3.349 0 0 0-.687-.094V11.25c0-.822-.678-1.5-1.5-1.5h-3V8.219c0-2.745-2.243-4.969-5-4.969a4.98 4.98 0 0 0-1 .094 4.98 4.98 0 0 0-1-.094zm1 1.156c1.73.439 3 1.953 3 3.813V9.75h-6V8.219c0-1.86 1.27-3.374 3-3.813zm-2.219.063c-1.073.91-1.781 2.237-1.781 3.75V9.75h-1V8.219c0-1.78 1.166-3.24 2.781-3.75zm4.438 0c1.615.51 2.781 1.97 2.781 3.75V9.75h-1V8.219c0-1.513-.708-2.84-1.781-3.75zM4.5 10.75h1.594c-.06.162-.094.318-.094.5-.002.2-.17.483-.469.625-.3.143-.761.143-1.062 0-.3-.142-.468-.425-.469-.625 0-.071.007-.127.031-.188a.506.506 0 0 1 .469-.312zm3 0a.5.5 0 0 0 .063 0H10.5v1.594c-.585.205-1 .755-1 1.406 0 .822.678 1.5 1.5 1.5s1.5-.678 1.5-1.5c0-.651-.415-1.201-1-1.406V10.75h8v1.594c-.585.205-1 .755-1 1.406 0 .822.678 1.5 1.5 1.5s1.5-.678 1.5-1.5c0-.651-.415-1.201-1-1.406V10.75h3c.286 0 .5.214.5.5v2.188c-1.415.413-2.469 1.707-2.469 3.25v.812h-.375a.5.5 0 0 0-.031 0 .5.5 0 0 0-.063 0h-1.906c-.626 0-1.156.531-1.156 1.156V31.594c0 .055.023.102.031.156H7.563a.5.5 0 0 0-.063 0 .467.467 0 0 1-.188-.031A.506.506 0 0 1 7 31.25V27a.5.5 0 0 0 0-.125V19.406a.5.5 0 0 0 0-.031V11.25c0-.071.007-.127.031-.188a.506.506 0 0 1 .469-.312zM4 12.719c.013.006.018.025.031.031a2.283 2.283 0 0 0 1.938 0c.013-.006.018-.025.031-.031V19.375a.5.5 0 0 0 0 .094v7.437A.5.5 0 0 0 6 27v4.25c0 .171.04.346.094.5H4.5a.488.488 0 0 1-.5-.5V12.719zm7 .531c.282 0 .5.218.5.5 0 .282-.218.5-.5.5a.493.493 0 0 1-.5-.5c0-.282.218-.5.5-.5zm9 0c.282 0 .5.218.5.5 0 .282-.218.5-.5.5a.493.493 0 0 1-.5-.5c0-.282.218-.5.5-.5zm5.625 1.156a2.35 2.35 0 0 1 1.688 2.281v.813h-3.5v-.813c0-1.13.765-2.027 1.812-2.28zm-2.281.5c-.33.52-.532 1.121-.532 1.781v.813h-.28v-.813c0-.714.32-1.34.812-1.78zm4.5.031c.465.431.75 1.05.75 1.75v.813h-.282v-.813c0-.637-.163-1.237-.468-1.75zM19.156 18.5H20c-.01.058-.063.096-.063.156 0 .05-.08.184-.218.25a.737.737 0 0 1-.532 0 .328.328 0 0 1-.187-.25c0-.046.003-.066.031-.093.029-.028.082-.063.125-.063zm1.969 0a.5.5 0 0 0 .031 0h1.657v.906c-.54.197-.938.707-.938 1.313 0 .774.632 1.406 1.406 1.406.775 0 1.407-.632 1.407-1.406 0-.581-.371-1.067-.875-1.282V18.5h4.78v.938c-.518.207-.905.69-.905 1.28 0 .775.631 1.407 1.406 1.407.774 0 1.437-.632 1.437-1.406 0-.604-.393-1.114-.937-1.313V18.5h2.25c.086 0 .156.064.156.156V31.594c0 .092-.07.156-.156.156H21.187a.5.5 0 0 0-.03 0c-.021 0-.045.007-.063 0-.02-.007-.048-.017-.063-.031-.028-.028-.031-.08-.031-.125v-2.75a.5.5 0 0 0 0-.094v-4.719A.5.5 0 0 0 21 24v-.063a.5.5 0 0 0 0-.03V18.655c0-.083.05-.145.125-.156zm-1.156 1.375.031 2v2.031A.5.5 0 0 0 20 24v4.781a.5.5 0 0 0 0 .063v2.75c0 .055.023.102.031.156h-.875a.153.153 0 0 1-.156-.156V19.906c.32.101.65.078.969-.031zm3.312.438c.231 0 .407.169.407.406a.394.394 0 0 1-.407.406.394.394 0 0 1-.406-.406c0-.237.175-.407.406-.407zm5.813 0c.23 0 .437.169.437.406 0 .237-.206.406-.437.406a.394.394 0 0 1-.407-.406c0-.237.176-.407.407-.407z" color="#000" font-family="Sans" font-weight="400" overflow="visible" style="text-indent:0;text-align:start;line-height:normal;text-transform:none;block-progression:tb;marker:none;-inkscape-font-specification:Sans" fill="#87f8fd" class="color000000 svgShape"></path></svg>